{"title":"MadMax1979[mini-HD.1080p.AC3.BDRip.x264-LEON 345]","uid":15576988,"size":4174247992,"categoryP":"video","categoryS":"hd___movies","magnet":"?xt=urn:btih:f44a19b1eb64382bdf0979a7543a788a782902f3&amp;dn=MadMax1979%5Bmini-HD.1080p.AC3.BDRip.x264-LEON+345%5D&amp;tr=udp%3A%2F%2Ftracker.leechers-paradise.org%3A6969&amp;tr=udp%3A%2F%2Fzer0day.ch%3A1337&amp;tr=udp%3A%2F%2Fopen.demonii.com%3A1337&amp;tr=udp%3A%2F%2Ftracker.coppersurfer.tk%3A6969&amp;tr=udp%3A%2F%2Fexodus.desync.com%3A6969","seeders":5,"leechers":3,"uploader":"Leon345","files":3,"time":1471352550,"description":"Mad Max *1979* 1080p.BDRip.AC3 2.0.Leon345\r\n ===========================================\r\n\r\n Kopia mini-HD 1080p = 3,88 GB\r\n\r\n Kopie mini-HD, to kopie specjalistyczne o dużej rozdzielczości (1920 x 1080), które mimo niewielkiego ciężaru (w MB) zachowują wysoką jakość.\r\n\r\n Szczególnie polecam tym, którzy chcą zaoszczędzić czas i przestrzeń na dysku.\r\n\r\n Taką kopię można także bez problemu nagrać na zwykłą płytę DVD lub przenieś na zewnętrzną pamięć.\r\n\r\n Ważne jest również to, że tą wersję mogą obejrzeć osoby, których sprzęt ma ograniczenia w postaci obsługi tylko formatu FAT, jak wiadomo taki format obsłuży filmy, które mają maksymalnie 4GB, więc w tym przypadku ta wersja jest też dla nich.\r\n ===================================================\r\n\r\n[img]http://i1365.photobucket.com/albums/r749/leon3456/Mad.Max_zpstu5rkslm.jpg[/img]\r\n\r\n Produkcja: Australia\r\n Gatunek: Sensacyjny, Sci-Fi \r\n Premiera: 30 grudnia 1979 (Polska), 12 kwietnia 1979 (świat)\r\n Reżyseria: George Miller \r\n Scenariusz: George Miller, James McCausland\r\n \nhttp://imdb.com/title/tt0079501/\r\n\r\n Kultowy film akcji. Świat po wojnie nuklearnej. Australią rządzą brutalni członkowie gangów motocyklowych, którzy atakują każdego, kto stanie na ich drodze. Tytułowy Mad Max to bezwględny policjant, a prywatnie czuły mąż i kochający ojciec, który w pojedynkę postanawia wymierzyć sprawiedliwość. Kiedy w czasie pościgu nieumyślnie doprowadza do śmierci lidera gangu motocyklowego, Nocnego Jeźdźca ta przypadkowa śmierć staje się pierwszym ogniwem łańcucha wypadków, które zburzą spokój miasta, a także samego bohatera.\r\n\r\n Obsada:\r\n\r\n Mel Gibson - Max Rockatansky\r\n Joanne Samuel .- Jessie Rockatansky\r\n Hugh Keays-Byrne - Toecutter\r\n Steve Bisley .-Jim Goose\r\n Tim Burns .- Johnny, chłopiec\r\n Roger Ward - Fifi Macaffee\r\n Lisa Aldenhoven - Pielęgniarka\r\n David Bracks - Mudguts\r\n\r\n General\r\n\r\n Format : Matroska\r\n Format version : Version 2\r\n File size : 3.89 GiB\r\n Duration : 1h 33mn\r\n Overall bit rate : 5 972 Kbps\r\n Movie name : Mad.Max.(1979)1080p.BDRip.Leon345\r\n Encoded date : UTC 2016-08-16 09:27:35\r\n Writing application : mkvmerge v5.7.0 ('The Whirlwind') built on Jul 8 2012 20:08:51\r\n Writing library : libebml v1.2.3 + libmatroska v1.3.0\r\n\r\n Video\r\n ID : 1\r\n Format : AVC\r\n Format/Info : Advanced Video Codec\r\n Format profile :   \r\n Format settings, CABAC : Yes\r\n Format settings, ReFrames : 4 frames\r\n Codec ID : V_MPEG4/ISO/AVC\r\n Duration : 1h 33mn\r\n Bit rate : 5 699 Kbps\r\n Width : 1 920 pixels\r\n Height : 820 pixels\r\n Display aspect ratio : 2.35:1\r\n Frame rate mode : Constant\r\n Frame rate : 23.976 (24000/1001) fps\r\n Color space : YUV\r\n Chroma subsampling : 4:2:0\r\n Bit depth : 8 bits\r\n Scan type : Progressive\r\n Bits/(Pixel*Frame) : 0.151\r\n Stream size : 3.64 GiB (94%)\r\n Writing library : x264 \r\n Encoding settings : cabac=1 / [****]4 / deblock=1:-1:-1 / rc=2pass\r\n Default : Yes\r\n Forced : No\r\n\r\n Audio #1\r\n ID : 2\r\n Format : AC-3\r\n Format/Info : Audio Coding 3\r\n Mode extension : CM (complete main)\r\n Format settings, Endianness : Big\r\n Codec ID : A_AC3\r\n Duration : 1h 33mn\r\n Bit rate mode : Constant\r\n Bit rate : 128 Kbps\r\n Channel(s) : 2 channels\r\n Channel positions : Front: L R\r\n Sampling rate : 48.0 KHz\r\n Frame rate : 31.250 fps (1536 spf)\r\n Compression mode : Lossy\r\n Stream size : 85.3 MiB (2%)\r\n Title : AC3 2.0 Lektor PL\r\n Language : Polish\r\n Default : Yes\r\n Forced : No\r\n\r\n Audio #2\r\n ID : 3\r\n Format : AC-3\r\n Format/Info : Audio Coding 3\r\n Mode extension : CM (complete main)\r\n Format settings, Endianness : Big\r\n Codec ID : A_AC3\r\n Duration : 1h 33mn\r\n Bit rate mode : Constant\r\n Bit rate : 128 Kbps\r\n Channel(s) : 2 channels\r\n Channel positions : Front: L R\r\n Sampling rate : 48.0 KHz\r\n Frame rate : 31.250 fps (1536 spf)\r\n Compression mode : Lossy\r\n Stream size : 85.3 MiB (2%)\r\n Title : AC3 2.0 ENG\r\n Language : English\r\n Default : No\r\n Forced : No\r\n\r\n Text #1\r\n ID : 4\r\n Format : UTF-8\r\n Codec ID : S_TEXT/UTF8\r\n Codec ID/Info : UTF-8 Plain Text\r\n Title : napisy PL\r\n Language : Polish\r\n Default : No\r\n Forced : No\r\n\r\n Text #2\r\n ID : 5\r\n Format : UTF-8\r\n Codec ID : S_TEXT/UTF8\r\n Codec ID/Info : UTF-8 Plain Text\r\n Title : napisy ENG\r\n Language : English\r\n Default : No\r\n Forced : No\r\n\r\n Text #3\r\n ID : 6\r\n Format : PGS\r\n Muxing mode : zlib\r\n Codec ID : S_HDMV/PGS\r\n Codec ID/Info : Picture based subtitle format used on BDs/HD-DVDs\r\n Title : Bluray orginal\r\n Language : Polish\r\n Default : No\r\n Forced : No\r\n\r\n Text #4\r\n ID : 7\r\n Format : PGS\r\n Muxing mode : zlib\r\n Codec ID : S_HDMV/PGS\r\n Codec ID/Info : Picture based subtitle format used on BDs/HD-DVDs\r\n Title : Bluray orginal\r\n Language : English\r\n Default : No\r\n Forced : No\r\n\r\n Source:\r\n A/V- Mad Max(1979)1080p Blu-ray EUR AVC DTS HD-MA 5.1","torrent":{"xt":"urn:btih:f44a19b1eb64382bdf0979a7543a788a782902f3","amp;dn":"MadMax1979%5Bmini-HD.1080p.AC3.BDRip.x264-LEON+345%5D","amp;tr":["udp%3A%2F%2Ftracker.leechers-paradise.org%3A6969","udp%3A%2F%2Fzer0day.ch%3A1337","udp%3A%2F%2Fopen.demonii.com%3A1337","udp%3A%2F%2Ftracker.coppersurfer.tk%3A6969","udp%3A%2F%2Fexodus.desync.com%3A6969"],"infoHash":"f44a19b1eb64382bdf0979a7543a788a782902f3","infoHashBuffer":{"type":"Buffer","data":[244,74,25,177,235,100,56,43,223,9,121,167,84,58,120,138,120,41,2,243]},"announce":[],"urlList":[]}}